<?xml version="1.0" encoding="UTF-8"?> <svg xmlns="http://www.w3.org/2000/svg" id="Layer_1" data-name="Layer 1" viewBox="0 0 120 135"><defs><style>.cls-1{fill:#7e4799;}.cls-2{fill:#fff;}</style></defs><title>01_INSTANA</title><path class="cls-1" d="M51.99,4.64,9.55,29.15A16,16,0,0,0,1.56,43V92a16,16,0,0,0,8,13.84l42.43,24.52a16,16,0,0,0,16,0l42.45-24.51a16,16,0,0,0,8-13.84V43a16,16,0,0,0-8-13.84L67.99,4.64A16,16,0,0,0,51.99,4.64Z"></path><polygon class="cls-2" points="56.812 53.541 45.062 58.109 45.062 39.197 56.812 43.387 56.812 53.541"></polygon><path class="cls-2" d="M34.376,42.367V54.653l8.89,3.456V39.2Zm2,11.905-1.384-.486V43.436l1.384-.456Zm2.661.8-1.95-.652V42.792l1.95-.61Zm3.325,1.014-2.581-.806V42.031l2.581-.756Z"></path><polygon class="cls-2" points="44.148 72.453 32.397 77.02 32.397 58.109 44.148 62.299 44.148 72.453"></polygon><path class="cls-2" d="M21.711,61.279V73.565L30.6,77.02V58.109Zm2,11.9L22.331,72.7V62.347l1.384-.455Zm2.66.8-1.949-.651V61.7l1.949-.61ZM29.7,75,27.12,74.2V60.942l2.581-.755Z"></path><polygon class="cls-2" points="98.289 72.453 86.538 77.02 86.538 58.109 98.289 62.299 98.289 72.453"></polygon><path class="cls-2" d="M75.852,61.279V73.565l8.891,3.455V58.109Zm2,11.9L76.472,72.7V62.347l1.384-.455Zm2.66.8-1.949-.651V61.7l1.949-.61ZM83.842,75,81.261,74.2V60.942l2.581-.755Z"></path><polygon class="cls-2" points="84.201 53.572 72.45 58.139 72.45 39.227 84.201 43.418 84.201 53.572"></polygon><path class="cls-2" d="M61.764,42.4V54.684l8.891,3.455V39.227Zm2,11.9-1.384-.485V43.466l1.384-.455Zm2.66.8-1.949-.651V42.822l1.949-.61Zm3.326,1.015-2.581-.807V42.061l2.581-.755Z"></path><polygon class="cls-2" points="56.812 91.205 45.062 95.773 45.062 76.861 56.812 81.051 56.812 91.205"></polygon><path class="cls-2" d="M34.376,80.031V92.317l8.89,3.456V76.861Zm2,11.905-1.384-.486V81.1l1.384-.456Zm2.661.8-1.95-.652V80.456l1.95-.61Zm3.325,1.014-2.581-.806V79.695l2.581-.756Z"></path><polygon class="cls-2" points="84.201 91.236 72.45 95.803 72.45 76.891 84.201 81.082 84.201 91.236"></polygon><path class="cls-2" d="M61.764,80.062V92.348L70.655,95.8V76.891Zm2,11.9-1.384-.485V81.13l1.384-.455Zm2.66.805-1.949-.651V80.486l1.949-.61Zm3.326,1.015-2.581-.807V79.725l2.581-.755Z"></path><polygon class="cls-2" points="71.45 72.426 59.699 76.994 59.699 58.082 71.45 62.272 71.45 72.426"></polygon><path class="cls-2" d="M49.013,61.252V73.538L57.9,76.994V58.082Zm2,11.9-1.384-.486V62.321l1.384-.456Zm2.66.805-1.949-.652V61.677l1.949-.61ZM57,74.976l-2.581-.806V60.916L57,60.16Z"></path></svg> 