<?xml version="1.0" standalone="no"?><svg xmlns="http://www.w3.org/2000/svg" viewBox="0 0 1440 320"><path fill="#00cba9" fill-opacity="1" d="M0,96L34.3,80C68.6,64,137,32,206,37.3C274.3,43,343,85,411,128C480,171,549,213,617,218.7C685.7,224,754,192,823,154.7C891.4,117,960,75,1029,90.7C1097.1,107,1166,181,1234,208C1302.9,235,1371,213,1406,202.7L1440,192L1440,320L1405.7,320C1371.4,320,1303,320,1234,320C1165.7,320,1097,320,1029,320C960,320,891,320,823,320C754.3,320,686,320,617,320C548.6,320,480,320,411,320C342.9,320,274,320,206,320C137.1,320,69,320,34,320L0,320Z"></path></svg>